<?xml version="1.0" encoding="UTF-8"?>
<svg id="Capa_2" data-name="Capa 2" xmlns="http://www.w3.org/2000/svg" viewBox="0 0 104.62 102.68">
  <g id="Capa_1-2" data-name="Capa 1">
    <g>
      <path d="M103.48,102.63c-7.1-.1-14.25.2-21.34-.1-3.22-5.67-4.91-12.53-7.58-18.6-.26-.77-.6-1.28-1.48-1.24-13.19,0-26.36.02-39.53,0-1.09-.05-1.67.11-2.02,1.26-2.25,5.83-4.52,11.65-6.78,17.47-.18.85-.81,1.36-1.69,1.22-7.11-.16-14.43.26-21.57-.16,2.87-8.32,6.37-16.38,9.48-24.62,8.73-7.45,19.35-13.15,28.88-19.85.34.6.73,1.18,1.19,1.73.49.59,1.05,1.16,1.69,1.69.41.35.84.67,1.27.96,3.45,2.38,7.38,3.11,11.57,2.39,2.37-.39,4.37-1.2,6.02-2.41,1.27-.93,2.33-2.1,3.18-3.51,1-1.66,1.71-3.64,2.14-5.95.78-4.31-.2-8.18-1.73-11.93,8.56-5.76,18.05-12.56,26.11-15.68-5.66,5.89-9.84,14.43-7.66,22.73,5.48,14.93,11.53,29.66,17.26,44.49,1.14,3.22,2.48,6.28,3.67,9.49.31.78-.58.6-1.07.61Z"/>
      <path d="M75.2,24.47s-.02.02-.03.03c-.36.24-.76.27-.91.06-.14-.21.03-.58.38-.82.07-.05.14-.09.22-.12l-3.72-9.37s-.08-.04-.1-.08c-.04-.06-.05-.15-.03-.24l-2.66-6.71c-.23.15-.48.16-.58.03-.1-.14.02-.38.25-.54.03-.02.07-.04.1-.06l-2.64-6.65h-22.85s-.47,1.2-1.25,3.22c.16-.06.32-.05.38.04.09.13-.02.34-.23.48-.14.1-.29.13-.41.11-1.46,3.76-3.82,9.84-6.33,16.3.21-.05.39-.02.48.11.14.2-.03.54-.35.76-.18.12-.37.18-.54.18-.77,1.99-1.56,4-2.32,5.99.02.15-.05.34-.2.51-1.29,3.32-2.54,6.53-3.65,9.39.25-.04.47,0,.58.16.18.27-.03.74-.49,1.05-.22.15-.45.23-.66.25-.82,2.12-1.55,3.99-2.13,5.49,0,0,0,0,.01.02.19.28,0,.74-.44,1.08-.47,1.2-.8,2.06-.96,2.48.03-.03.07-.05.11-.08.53-.36,1.12-.4,1.33-.09.22.31-.04.86-.56,1.21-.53.36-1.12.4-1.34.09,0,0,0-.01,0-.02-.49,1.08-1.43,3.06-2.79,5.6.57-.38,1.21-.42,1.44-.08.23.34-.04.93-.62,1.32s-1.23.43-1.46.1c-.02-.03-.03-.05-.04-.09-.37.67-.76,1.37-1.18,2.09.22.36-.07.96-.66,1.36-.07.05-.14.09-.21.13-.95,1.6-2.01,3.3-3.16,5.04.33-.04.61.04.76.25.26.38-.05,1.05-.7,1.49-.52.35-1.09.45-1.43.29-.38.55-.77,1.1-1.17,1.65.24.4-.08,1.08-.73,1.52-.2.14-.41.24-.61.3-3.21,4.24-6.94,8.48-11.12,12.06l3.1-2.09c-.09-.45.26-1.06.89-1.49.64-.44,1.35-.54,1.73-.28l1.78-1.2c-.4.07-.75-.02-.92-.27-.29-.42.06-1.17.78-1.66.72-.49,1.54-.54,1.83-.12.17.25.12.61-.1.97l4.17-2.82c-.12-.42.21-1.03.82-1.44.62-.42,1.31-.51,1.66-.23l2.17-1.46c-.51.18-.98.14-1.18-.16-.27-.4.05-1.09.72-1.55.67-.46,1.43-.51,1.71-.11.21.3.07.77-.3,1.18l4.57-3.08c-.16-.39.15-.99.75-1.39.6-.41,1.28-.48,1.58-.18l7.84-5.29c-.2-.36.09-.95.67-1.34.58-.4,1.24-.45,1.5-.12l3.08-2.07h0c-.02-.08-.04-.15-.06-.22-.09.09-.19.17-.3.25-.57.39-1.23.43-1.46.1-.23-.34.04-.93.62-1.33.29-.2.61-.31.88-.32-.09-.6-.14-1.22-.15-1.84-.52.32-1.1.34-1.3.03-.22-.33.04-.89.59-1.27.26-.17.53-.28.77-.3.06-.73.17-1.49.34-2.26-.09.1-.2.19-.32.28-.52.36-1.12.4-1.33.09-.21-.31.04-.85.56-1.21.51-.35,1.09-.39,1.31-.11.47-1.89,1.09-3.69,1.86-5.42-.13-.03-.23-.08-.3-.18-.19-.28.04-.78.52-1.1.16-.11.33-.18.48-.22.97-1.94,2.12-3.8,3.43-5.6-.4.23-.83.24-.99,0-.17-.25.03-.7.46-.99.43-.29.92-.33,1.09-.07.04.06.06.14.06.22.64-.84,1.31-1.66,2.02-2.48-.1-.02-.18-.07-.23-.15-.16-.24.03-.66.43-.93.33-.22.7-.29.91-.17.29-.32.59-.64.89-.96-.22,1.62-.57,3.03-.84,4.36.04.02.08.06.11.1.15.22.02.56-.28.84-.13.8-.21,1.59-.18,2.38.22-.02.4.04.5.18.17.25-.01.69-.42.99.06.66.24,1.27.99,1.43.48.1.81-.05,1.07-.32l.29-.83c-.1-.03-.17-.08-.22-.15-.18-.27.03-.73.49-1.04.06-.04.13-.08.19-.11l1.14-3.28c.17-1.4.19-2.82.23-4.24.13-4.79,1.95-8.63,5.5-12.03-.25.1-.48.09-.58-.06-.12-.18.03-.5.33-.71.31-.21.66-.23.78-.05.06.09.06.2,0,.31.16-.15.34-.3.51-.45-.29,1.19-.48,2.34-.55,3.46.03.02.06.04.08.08.1.14.04.36-.12.55-.04.95-.01,1.87.08,2.77.03.02.07.04.09.08.08.12.06.28-.03.45.3,2.49,1.04,4.81,1.96,7.06.04-.21.22-.46.48-.64.41-.28.86-.31,1.03-.07.16.24-.03.66-.43.93-.33.22-.7.29-.91.16.3.72.61,1.43.94,2.13.2-.01.36.04.45.17.11.16.07.39-.08.61.59,1.25,1.2,2.49,1.78,3.74.29-.15,10.38-6.63,10.38-6.63-.07-.03-.13-.07-.17-.13-.16-.24.03-.66.44-.93.4-.28.86-.31,1.03-.07.04.07.06.15.05.23l1.56-1.05-2.06-5.19ZM11.74,72.89c-.69.48-1.49.53-1.77.11-.28-.41.05-1.13.75-1.61.69-.48,1.49-.53,1.77-.11s-.05,1.13-.75,1.61ZM15.08,69.43c-.67.46-1.43.51-1.71.11-.27-.4.05-1.09.72-1.55.67-.46,1.43-.51,1.71-.11.27.4-.05,1.09-.72,1.55ZM17.48,61.18c.62-.42,1.33-.47,1.58-.1.25.37-.05,1.01-.67,1.44-.62.42-1.33.47-1.58.1-.25-.37.05-1.01.67-1.44ZM18.41,65.97c-.65.44-1.38.49-1.64.1-.26-.38.05-1.05.7-1.49.65-.44,1.38-.49,1.64-.1.26.38-.05,1.05-.7,1.49ZM20.85,57.77c.6-.41,1.28-.45,1.52-.1.24.35-.05.97-.64,1.38-.6.41-1.28.45-1.52.1-.24-.35.05-.97.65-1.38ZM20.83,61.18c.62-.42,1.33-.47,1.58-.1.25.37-.05,1.01-.67,1.44-.62.42-1.33.47-1.58.1-.25-.37.05-1.01.67-1.44ZM21.76,65.97c-.65.44-1.38.49-1.64.1-.26-.38.05-1.05.7-1.49.65-.44,1.38-.49,1.64-.1.26.38-.05,1.05-.7,1.49ZM31.05,30.54c.4-.28.86-.31,1.03-.07.16.24-.03.66-.43.93-.41.28-.86.31-1.03.07-.16-.24.03-.66.44-.93ZM31.03,33.94c.43-.29.92-.33,1.09-.07.17.25-.03.69-.46.99-.43.29-.92.32-1.09.07-.17-.25.03-.7.46-.99ZM31.01,37.35c.45-.31.97-.34,1.15-.08.18.27-.03.74-.49,1.05-.45.31-.97.34-1.15.07-.18-.27.04-.73.49-1.04ZM30.99,40.75c.48-.32,1.02-.36,1.21-.08.19.28-.04.78-.52,1.1-.48.33-1.02.36-1.21.08-.19-.28.03-.78.51-1.1ZM30.97,44.16c.5-.34,1.07-.38,1.27-.08.2.29-.04.81-.54,1.16-.5.34-1.07.38-1.27.08-.2-.3.04-.82.54-1.16ZM30.96,47.56c.52-.36,1.12-.4,1.33-.09.21.31-.04.86-.56,1.21-.53.36-1.12.4-1.34.09-.21-.31.04-.85.57-1.21ZM30.94,50.97c.55-.37,1.18-.41,1.4-.09.22.33-.04.89-.59,1.27-.55.37-1.18.41-1.4.09-.22-.33.04-.89.59-1.27ZM30.92,54.37c.58-.39,1.23-.43,1.46-.09.23.34-.04.93-.62,1.32-.57.39-1.23.43-1.46.1-.23-.34.04-.93.62-1.33ZM27.64,40.75c.48-.32,1.02-.36,1.21-.08.19.28-.04.78-.52,1.1-.48.33-1.02.36-1.21.08-.19-.28.03-.78.51-1.1ZM27.62,44.16c.5-.34,1.07-.38,1.28-.08.2.29-.04.81-.54,1.16-.5.34-1.07.38-1.27.08-.2-.3.04-.82.54-1.16ZM27.61,47.56c.52-.36,1.12-.4,1.33-.09.21.31-.04.86-.56,1.21-.53.36-1.12.4-1.34.09-.21-.31.04-.85.57-1.21ZM27.59,50.97c.55-.37,1.18-.41,1.4-.09.22.33-.04.89-.59,1.27-.55.37-1.18.41-1.4.09-.22-.33.04-.89.59-1.27ZM27.57,54.37c.58-.39,1.23-.43,1.46-.09.23.34-.04.93-.62,1.32s-1.23.43-1.46.1c-.23-.34.04-.93.62-1.33ZM27.55,57.77c.6-.41,1.28-.45,1.52-.1.24.35-.05.97-.65,1.38-.6.41-1.28.45-1.52.1-.24-.35.05-.97.65-1.38ZM24.24,50.97c.55-.37,1.18-.41,1.4-.09.22.33-.04.89-.59,1.27-.55.37-1.18.41-1.4.09-.22-.33.04-.89.59-1.27ZM24.22,54.37c.58-.39,1.23-.43,1.46-.09.23.34-.04.93-.62,1.32s-1.23.43-1.46.1c-.23-.34.04-.93.62-1.33ZM24.2,57.77c.6-.41,1.28-.45,1.52-.1.24.35-.05.97-.64,1.38-.6.41-1.28.45-1.52.1-.24-.35.05-.97.65-1.38ZM25.09,62.52c-.62.42-1.33.47-1.58.1-.25-.37.05-1.01.67-1.44.62-.42,1.33-.47,1.58-.1.25.37-.05,1.01-.67,1.44ZM28.45,62.52c-.62.42-1.33.47-1.58.1-.25-.37.05-1.01.67-1.44.62-.42,1.33-.47,1.58-.1.25.37-.05,1.01-.67,1.44ZM31.78,59.06c-.6.41-1.28.45-1.52.1-.24-.35.05-.97.65-1.38.6-.41,1.28-.45,1.52-.1s-.05.97-.65,1.38ZM34.43,23.73c.35-.24.76-.27.9-.06.15.21-.03.58-.38.82-.35.24-.76.27-.9.06-.15-.21.03-.58.38-.82ZM34.41,27.13c.38-.26.81-.29.97-.06.16.22-.03.62-.41.88-.38.26-.81.29-.97.06-.15-.23.03-.62.41-.88ZM34.4,30.54c.4-.28.86-.31,1.03-.07.16.24-.03.66-.44.93-.4.28-.86.31-1.03.07-.16-.24.03-.66.44-.93ZM34.38,33.94c.43-.29.92-.33,1.09-.07.17.25-.03.69-.46.99-.43.29-.92.32-1.09.07-.17-.25.03-.7.46-.99ZM34.36,37.35c.45-.31.97-.34,1.15-.08.18.27-.03.74-.49,1.05-.45.31-.97.34-1.15.07-.18-.27.04-.73.49-1.04ZM34.34,40.75c.48-.32,1.02-.36,1.21-.08.19.28-.04.78-.52,1.1-.48.33-1.02.36-1.21.08-.19-.28.03-.78.51-1.1ZM34.32,44.16c.5-.34,1.07-.38,1.27-.08.2.29-.04.81-.54,1.16s-1.07.38-1.27.08c-.2-.3.04-.82.54-1.16ZM34.31,47.56c.52-.36,1.12-.4,1.33-.09.21.31-.04.86-.56,1.21-.53.36-1.12.4-1.34.09-.21-.31.04-.85.57-1.21ZM34.29,50.97c.55-.37,1.18-.41,1.4-.09.22.33-.04.89-.59,1.27-.55.37-1.18.41-1.4.09-.22-.33.04-.89.59-1.27ZM35.11,55.6c-.57.39-1.23.43-1.46.1-.23-.34.04-.93.62-1.33.57-.39,1.23-.43,1.46-.09.23.34-.04.93-.62,1.32ZM37.84,13.51c.28-.19.6-.21.72-.05.12.17-.02.46-.3.65-.28.19-.6.22-.72.05-.11-.17.02-.46.31-.65ZM37.82,16.92c.31-.21.66-.23.78-.05.13.18-.02.5-.33.71-.31.21-.66.23-.78.05-.13-.18.02-.5.33-.71ZM37.8,20.32c.33-.23.71-.25.84-.05.14.2-.03.54-.35.76-.33.23-.71.25-.84.05-.14-.2.03-.54.35-.76ZM37.78,23.73c.35-.24.76-.27.9-.06.15.21-.03.58-.38.82-.35.24-.76.27-.9.06-.15-.21.03-.58.38-.82ZM37.76,27.13c.38-.26.81-.29.97-.06.15.22-.03.62-.41.88s-.81.29-.97.06c-.16-.23.03-.62.41-.88ZM37.75,30.54c.4-.28.86-.31,1.03-.07.16.24-.03.66-.44.93-.4.28-.86.31-1.03.07-.16-.24.03-.66.44-.93ZM37.73,33.94c.43-.29.92-.33,1.09-.07.17.25-.03.69-.46.99-.43.29-.92.32-1.09.07-.17-.25.03-.7.46-.99ZM37.71,37.35c.45-.31.97-.34,1.15-.08.18.27-.04.74-.49,1.05-.45.31-.97.34-1.15.07-.18-.27.03-.73.49-1.04ZM37.69,40.75c.48-.32,1.02-.36,1.21-.08.19.28-.03.78-.51,1.1-.48.33-1.02.36-1.21.08-.19-.28.04-.78.52-1.1ZM38.41,45.23c-.5.34-1.07.38-1.27.08-.2-.3.04-.82.54-1.16.5-.34,1.07-.38,1.27-.08.2.29-.04.81-.54,1.16ZM41.22,6.71c.23-.16.5-.18.6-.04.1.14-.02.38-.25.54-.23.16-.5.18-.6.04-.1-.14.02-.38.25-.54ZM41.2,10.11c.26-.18.55-.2.66-.04.1.15-.02.42-.28.6-.26.18-.55.2-.66.04-.1-.15.02-.42.28-.6ZM41.19,13.51c.28-.19.6-.21.72-.05.12.17-.02.46-.3.65-.28.19-.6.22-.72.05-.11-.17.02-.46.31-.65ZM41.17,16.92c.31-.21.66-.23.78-.05.13.18-.02.5-.33.71-.31.21-.66.23-.78.05-.13-.18.02-.5.33-.71ZM41.15,20.32c.33-.23.71-.25.84-.05.13.2-.03.54-.35.76-.33.23-.71.25-.84.05-.14-.2.03-.54.35-.76ZM41.13,23.73c.35-.24.76-.27.9-.06.14.21-.03.58-.38.82-.35.24-.76.27-.9.06-.15-.21.03-.58.38-.82ZM41.11,27.13c.38-.26.81-.29.97-.06.15.22-.03.62-.41.88s-.81.29-.97.06c-.16-.23.03-.62.41-.88ZM41.1,30.54c.41-.28.86-.31,1.03-.07.16.24-.03.66-.44.93-.4.28-.86.31-1.03.07-.16-.24.03-.66.43-.93ZM41.08,33.94c.43-.29.92-.33,1.09-.07.17.25-.03.69-.46.99-.43.29-.92.32-1.09.07-.17-.25.03-.7.46-.99ZM41.73,38.32c-.45.31-.97.34-1.15.07-.18-.27.03-.73.49-1.04.45-.31.97-.34,1.15-.08.18.27-.04.74-.49,1.05ZM44.59,3.3c.21-.14.45-.16.54-.03.09.13-.02.34-.23.48-.21.15-.45.16-.53.03s.02-.34.22-.48ZM44.57,6.71c.23-.16.5-.18.6-.04s-.02.38-.25.54c-.23.16-.5.18-.6.04s.02-.38.25-.54ZM44.55,10.11c.26-.18.55-.2.66-.04.1.15-.02.42-.28.6-.26.18-.55.2-.66.04-.1-.15.02-.42.28-.6ZM44.54,13.51c.29-.19.6-.21.72-.05.11.17-.02.46-.3.65-.28.19-.6.22-.72.05-.11-.17.02-.46.3-.65ZM44.52,16.92c.31-.21.66-.23.78-.05.12.18-.02.5-.33.71-.31.21-.66.23-.78.05-.12-.18.03-.5.33-.71ZM44.5,20.32c.33-.23.71-.25.84-.05.13.2-.03.54-.36.76-.33.23-.71.25-.84.05-.14-.2.03-.54.35-.76ZM44.48,23.73c.35-.24.76-.27.9-.06.14.21-.03.58-.38.82-.35.24-.76.27-.9.06-.15-.21.03-.58.38-.82ZM44.47,27.13c.38-.26.81-.29.97-.06.15.22-.03.62-.41.88-.38.26-.81.29-.97.06-.16-.23.03-.62.41-.88ZM45.04,31.4c-.4.28-.86.31-1.03.07-.16-.24.03-.66.43-.93.41-.28.86-.31,1.03-.07.16.24-.03.66-.44.93ZM47.94,3.3c.21-.14.45-.16.54-.03.09.13-.02.34-.23.48-.21.15-.45.16-.53.03-.09-.12.02-.34.22-.48ZM47.92,6.71c.23-.16.5-.18.6-.04.09.14-.02.38-.25.54-.23.16-.5.18-.6.04s.02-.38.25-.54ZM47.91,10.11c.26-.18.55-.2.66-.04.1.15-.02.42-.28.6-.26.18-.55.2-.66.04-.1-.15.02-.42.28-.6ZM47.89,13.51c.29-.19.6-.21.72-.05.11.17-.02.46-.3.65-.28.19-.6.22-.72.05-.11-.17.02-.46.3-.65ZM47.87,16.92c.31-.21.66-.23.78-.05.12.18-.02.5-.33.71-.31.21-.66.23-.78.05-.12-.18.03-.5.33-.71ZM47.85,20.32c.33-.23.71-.25.84-.05s-.03.54-.36.76c-.33.23-.71.25-.84.05-.14-.2.03-.54.35-.76ZM47.84,23.73c.35-.24.76-.27.9-.06.14.21-.03.58-.38.82-.35.24-.76.27-.9.06-.15-.21.03-.58.38-.82ZM48.37,27.95c-.38.26-.81.29-.97.06-.16-.23.03-.62.41-.88.38-.26.81-.29.97-.06.15.22-.03.62-.41.88ZM51.29,3.3c.21-.14.45-.16.54-.03.08.13-.02.34-.23.48-.21.15-.45.16-.53.03-.09-.12.02-.34.22-.48ZM51.28,6.71c.23-.16.5-.18.6-.04.09.14-.02.38-.25.54-.23.16-.5.18-.6.04-.1-.14.02-.38.25-.54ZM51.26,10.11c.26-.18.55-.2.66-.04.1.15-.02.42-.28.6-.26.18-.55.2-.66.04-.1-.15.02-.42.28-.6ZM51.24,13.51c.29-.19.6-.21.72-.05.11.17-.02.46-.3.65-.28.19-.6.22-.72.05-.11-.17.02-.46.3-.65ZM51.22,16.92c.31-.21.66-.23.78-.05.12.18-.02.5-.33.71-.31.21-.66.23-.78.05-.12-.18.03-.5.33-.71ZM51.2,20.32c.33-.23.71-.25.84-.05s-.03.54-.36.76c-.33.23-.71.25-.84.05-.13-.2.03-.54.36-.76ZM51.19,23.73c.35-.24.76-.27.9-.06.14.21-.03.58-.38.82-.35.24-.76.27-.9.06-.15-.21.03-.58.38-.82ZM51.17,27.13c.38-.26.81-.29.97-.06.15.22-.03.62-.41.88-.38.26-.81.29-.97.06-.16-.23.03-.62.41-.88ZM51.15,30.54c.41-.28.86-.31,1.03-.07.16.24-.03.66-.44.93-.4.28-.86.31-1.03.07-.16-.24.03-.66.43-.93ZM51.76,34.86c-.43.29-.92.32-1.09.07-.17-.25.03-.7.46-.99.43-.29.92-.33,1.09-.07.17.25-.03.69-.46.99ZM54.64,3.3c.21-.14.45-.16.54-.03.08.13-.02.34-.23.48-.21.15-.45.16-.53.03s.02-.34.22-.48ZM54.63,6.71c.23-.16.5-.18.59-.04.1.14-.02.38-.25.54-.23.16-.5.18-.6.04s.02-.38.25-.54ZM54.61,10.11c.26-.18.55-.2.66-.04.1.15-.02.42-.28.6-.26.18-.55.2-.66.04-.1-.15.02-.42.28-.6ZM54.59,13.51c.29-.19.6-.21.72-.05.11.17-.02.46-.3.65-.28.19-.6.22-.72.05-.11-.17.02-.46.3-.65ZM54.57,16.92c.31-.21.66-.23.78-.05.12.18-.02.5-.33.71-.31.21-.66.23-.78.05-.12-.18.03-.5.33-.71ZM55.04,21.03c-.33.23-.71.25-.84.05-.13-.2.03-.54.36-.76.33-.23.71-.25.84-.05.13.2-.03.54-.36.76ZM57.99,3.3c.21-.14.45-.16.54-.03.08.13-.02.34-.23.48-.21.15-.45.16-.53.03-.09-.12.02-.34.22-.48ZM57.97,6.71c.23-.16.5-.18.6-.04s-.02.38-.25.54c-.23.16-.5.18-.6.04s.02-.38.25-.54ZM57.96,10.11c.26-.18.55-.2.66-.04.1.15-.02.42-.28.6-.26.18-.55.2-.66.04-.1-.15.02-.42.28-.6ZM58.35,14.12c-.28.19-.6.22-.72.05-.11-.17.02-.46.3-.65.28-.19.6-.21.72-.05.11.17-.02.46-.3.65ZM61.34,3.3c.21-.14.45-.16.53-.03.09.13-.02.34-.22.48-.21.15-.45.16-.53.03-.09-.12.02-.34.22-.48ZM61.33,6.71c.23-.16.5-.18.6-.04s-.02.38-.25.54c-.23.16-.5.18-.6.04s.02-.38.25-.54ZM61.31,10.11c.26-.18.55-.2.66-.04.1.15-.02.42-.28.6-.26.18-.55.2-.66.04-.1-.15.02-.42.28-.6ZM61.29,13.51c.28-.19.6-.21.72-.05.11.17-.02.46-.3.65-.28.19-.6.22-.72.05-.11-.17.02-.46.3-.65ZM61.27,16.92c.3-.21.66-.23.78-.05.12.18-.03.5-.33.71-.31.21-.66.23-.78.05-.12-.18.03-.5.33-.71ZM61.26,20.32c.33-.23.71-.25.84-.05s-.03.54-.36.76c-.33.23-.71.25-.84.05-.13-.2.03-.54.36-.76ZM61.24,23.73c.36-.24.76-.27.91-.06.14.21-.03.58-.38.82-.35.24-.76.27-.91.06-.14-.21.03-.58.38-.82ZM61.78,27.95c-.38.26-.81.29-.96.06-.16-.23.03-.62.41-.88.38-.26.81-.29.97-.06.15.22-.03.62-.41.88ZM64.7,3.3c.21-.14.45-.16.53-.03.09.13-.02.34-.22.48-.21.15-.45.16-.53.03-.09-.12.02-.34.22-.48ZM64.68,6.71c.23-.16.5-.18.6-.04s-.02.38-.25.54c-.23.16-.5.18-.6.04-.1-.14.02-.38.25-.54ZM64.66,10.11c.26-.18.55-.2.66-.04.1.15-.02.42-.28.6-.26.18-.55.2-.66.04-.1-.15.02-.42.28-.6ZM64.64,13.51c.28-.19.6-.21.72-.05.11.17-.02.46-.3.65-.28.19-.6.22-.72.05-.11-.17.02-.46.3-.65ZM64.63,16.92c.3-.21.66-.23.78-.05.12.18-.03.5-.33.71-.3.21-.66.23-.78.05-.12-.18.03-.5.33-.71ZM64.61,20.32c.33-.23.71-.25.84-.05.13.2-.03.54-.36.76-.33.23-.71.25-.84.05-.13-.2.03-.54.36-.76ZM64.59,23.73c.35-.24.76-.27.91-.06.14.21-.03.58-.38.82-.35.24-.76.27-.91.06-.14-.21.03-.58.38-.82ZM64.57,27.13c.38-.26.81-.29.97-.06.15.22-.03.62-.41.88s-.81.29-.97.06c-.15-.23.03-.62.41-.88ZM64.55,30.54c.41-.28.86-.31,1.03-.07.16.24-.03.66-.43.93-.41.28-.86.31-1.03.07-.16-.24.03-.66.43-.93ZM65.16,34.86c-.43.29-.92.32-1.09.07-.17-.25.03-.7.46-.99.43-.29.92-.33,1.09-.07.17.25-.03.69-.46.99ZM71.32,16.92c.31-.21.66-.23.78-.05.12.18-.03.5-.33.71-.31.21-.66.23-.78.05-.12-.18.03-.5.33-.71ZM71.31,20.32c.33-.23.71-.25.84-.05.13.2-.03.54-.36.76-.33.23-.71.25-.84.05s.03-.54.36-.76ZM71.29,23.73c.35-.24.76-.27.91-.06.14.21-.03.58-.38.82-.36.24-.76.27-.91.06-.14-.21.03-.58.38-.82ZM71.27,27.13c.38-.26.81-.29.96-.06.16.22-.03.62-.41.88-.38.26-.81.29-.97.06-.15-.23.03-.62.41-.88ZM68.01,10.11c.26-.18.55-.2.66-.04.1.15-.02.42-.28.6-.26.18-.55.2-.66.04-.1-.15.02-.42.28-.6ZM67.99,13.51c.28-.19.6-.21.72-.05.11.17-.02.46-.3.65-.28.19-.6.22-.72.05-.11-.17.02-.46.3-.65ZM67.97,16.92c.31-.21.66-.23.78-.05.12.18-.03.5-.33.71-.3.21-.66.23-.78.05-.12-.18.03-.5.33-.71ZM67.96,20.32c.33-.23.71-.25.84-.05.13.2-.03.54-.36.76-.33.23-.71.25-.84.05s.03-.54.36-.76ZM67.94,23.73c.35-.24.76-.27.91-.06.14.21-.03.58-.38.82-.36.24-.76.27-.91.06-.14-.21.03-.58.38-.82ZM67.92,27.13c.38-.26.81-.29.96-.06.16.22-.03.62-.41.88s-.81.29-.97.06c-.15-.23.03-.62.41-.88ZM67.9,30.54c.41-.28.86-.31,1.03-.07.16.24-.03.66-.43.93-.41.28-.86.31-1.03.07-.16-.24.03-.66.43-.93ZM68.51,34.86c-.43.29-.92.32-1.09.07-.17-.25.03-.7.46-.99.43-.29.92-.33,1.09-.07.17.25-.03.69-.46.99ZM71.85,31.4c-.41.28-.86.31-1.03.07-.16-.24.03-.66.44-.93.4-.28.86-.31,1.03-.07.16.24-.03.66-.43.93ZM75.18,27.95c-.38.26-.81.29-.97.06-.15-.23.03-.62.41-.88.38-.26.81-.29.97-.06.16.22-.03.62-.41.88Z"/>
    </g>
  </g>
</svg>